<?xml version="1.0" encoding="UTF-8"?>
<svg xmlns="http://www.w3.org/2000/svg" xmlns:xlink="http://www.w3.org/1999/xlink" width="98px" height="42px" viewBox="0 0 98 42" version="1.1">
<g id="surface1">
<path style=" stroke:none;fill-rule:nonzero;fill:rgb(0%,0%,0%);fill-opacity:1;" d="M 1.222656 0.960938 L 1.222656 41.015625 L 4.089844 41.015625 L 4.089844 41.976562 L 0.125 41.976562 L 0.125 0 L 4.089844 0 L 4.089844 0.960938 Z M 12.265625 13.660156 L 12.265625 15.6875 L 12.320312 15.6875 C 12.824219 14.945312 13.488281 14.332031 14.265625 13.890625 C 15.023438 13.464844 15.890625 13.253906 16.867188 13.253906 C 17.808594 13.253906 18.667969 13.4375 19.445312 13.804688 C 20.222656 14.171875 20.8125 14.816406 21.214844 15.742188 C 21.65625 15.085938 22.257812 14.507812 23.015625 14.007812 C 23.773438 13.503906 24.667969 13.253906 25.707031 13.253906 C 26.492188 13.253906 27.222656 13.351562 27.894531 13.542969 C 28.566406 13.738281 29.140625 14.046875 29.621094 14.46875 C 30.101562 14.894531 30.476562 15.449219 30.746094 16.132812 C 31.011719 16.820312 31.148438 17.644531 31.148438 18.609375 L 31.148438 28.628906 L 27.0625 28.628906 L 27.0625 20.144531 C 27.0625 19.644531 27.042969 19.171875 27.003906 18.726562 C 26.976562 18.320312 26.867188 17.929688 26.6875 17.566406 C 26.511719 17.238281 26.25 16.96875 25.925781 16.785156 C 25.589844 16.59375 25.132812 16.496094 24.554688 16.496094 C 23.980469 16.496094 23.515625 16.609375 23.160156 16.828125 C 22.804688 17.050781 22.527344 17.339844 22.324219 17.699219 C 22.117188 18.074219 21.980469 18.488281 21.921875 18.914062 C 21.855469 19.371094 21.820312 19.828125 21.820312 20.289062 L 21.820312 28.628906 L 17.734375 28.628906 L 17.734375 20.230469 C 17.734375 19.789062 17.726562 19.347656 17.707031 18.914062 C 17.691406 18.503906 17.609375 18.097656 17.460938 17.710938 C 17.320312 17.347656 17.070312 17.039062 16.742188 16.828125 C 16.40625 16.609375 15.910156 16.496094 15.257812 16.496094 C 15 16.507812 14.742188 16.550781 14.496094 16.628906 C 14.160156 16.726562 13.84375 16.894531 13.574219 17.117188 C 13.277344 17.359375 13.023438 17.707031 12.8125 18.160156 C 12.601562 18.613281 12.496094 19.207031 12.496094 19.941406 L 12.496094 28.628906 L 8.40625 28.628906 L 8.40625 13.660156 Z M 33.765625 15.859375 C 34.179688 15.230469 34.730469 14.707031 35.378906 14.324219 C 36.058594 13.925781 36.804688 13.648438 37.578125 13.5 C 38.390625 13.335938 39.214844 13.253906 40.042969 13.253906 C 40.789062 13.253906 41.546875 13.304688 42.316406 13.414062 C 43.082031 13.519531 43.785156 13.726562 44.417969 14.035156 C 45.050781 14.34375 45.566406 14.773438 45.972656 15.324219 C 46.375 15.875 46.574219 16.601562 46.574219 17.511719 L 46.574219 25.296875 C 46.574219 25.976562 46.617188 26.621094 46.691406 27.238281 C 46.765625 27.855469 46.902344 28.320312 47.09375 28.628906 L 42.949219 28.628906 C 42.792969 28.160156 42.695312 27.675781 42.664062 27.179688 C 42.007812 27.855469 41.242188 28.332031 40.359375 28.597656 C 39.484375 28.867188 38.570312 29.007812 37.652344 29.007812 C 36.945312 29.007812 36.28125 28.917969 35.667969 28.742188 C 35.082031 28.585938 34.535156 28.308594 34.054688 27.933594 C 33.589844 27.5625 33.222656 27.085938 32.976562 26.542969 C 32.714844 25.984375 32.585938 25.316406 32.585938 24.546875 C 32.585938 23.695312 32.734375 22.996094 33.035156 22.445312 C 33.332031 21.894531 33.714844 21.457031 34.183594 21.128906 C 34.65625 20.800781 35.191406 20.554688 35.796875 20.390625 C 36.402344 20.226562 37.011719 20.097656 37.625 20 C 38.238281 19.902344 38.84375 19.828125 39.4375 19.769531 C 40.035156 19.710938 40.5625 19.625 41.023438 19.507812 C 41.484375 19.390625 41.847656 19.222656 42.113281 19 C 42.382812 18.777344 42.507812 18.457031 42.488281 18.03125 C 42.488281 17.585938 42.417969 17.234375 42.273438 16.972656 C 42.140625 16.722656 41.941406 16.511719 41.699219 16.367188 C 41.441406 16.214844 41.15625 16.117188 40.863281 16.078125 C 40.523438 16.027344 40.183594 16.003906 39.839844 16.003906 C 39.035156 16.003906 38.402344 16.179688 37.941406 16.527344 C 37.480469 16.871094 37.210938 17.453125 37.136719 18.261719 L 33.046875 18.261719 C 33.105469 17.296875 33.34375 16.496094 33.765625 15.859375 Z M 41.839844 21.664062 C 41.566406 21.753906 41.289062 21.828125 41.003906 21.882812 C 40.695312 21.941406 40.382812 21.988281 40.070312 22.027344 C 39.742188 22.066406 39.417969 22.113281 39.089844 22.171875 C 38.785156 22.230469 38.480469 22.304688 38.183594 22.402344 C 37.90625 22.492188 37.644531 22.621094 37.410156 22.792969 C 37.1875 22.957031 37.011719 23.167969 36.875 23.417969 C 36.742188 23.667969 36.675781 23.984375 36.675781 24.371094 C 36.675781 24.738281 36.742188 25.046875 36.875 25.296875 C 37.011719 25.550781 37.191406 25.746094 37.421875 25.894531 C 37.652344 26.039062 37.921875 26.136719 38.230469 26.195312 C 38.535156 26.253906 38.851562 26.28125 39.179688 26.28125 C 39.984375 26.28125 40.605469 26.148438 41.050781 25.878906 C 41.492188 25.609375 41.816406 25.285156 42.027344 24.90625 C 42.238281 24.53125 42.367188 24.152344 42.417969 23.765625 C 42.464844 23.378906 42.488281 23.070312 42.488281 22.835938 L 42.488281 21.300781 C 42.300781 21.464844 42.078125 21.589844 41.839844 21.664062 Z M 57.339844 13.660156 L 57.339844 16.410156 L 54.347656 16.410156 L 54.347656 23.820312 C 54.347656 24.515625 54.464844 24.980469 54.691406 25.210938 C 54.921875 25.445312 55.382812 25.558594 56.074219 25.558594 C 56.304688 25.558594 56.523438 25.550781 56.738281 25.53125 C 56.945312 25.511719 57.148438 25.480469 57.339844 25.445312 L 57.339844 28.628906 C 56.960938 28.691406 56.574219 28.730469 56.1875 28.746094 C 55.777344 28.765625 55.363281 28.773438 54.953125 28.773438 C 54.320312 28.773438 53.71875 28.730469 53.152344 28.644531 C 52.625 28.570312 52.117188 28.398438 51.65625 28.136719 C 51.222656 27.882812 50.867188 27.511719 50.632812 27.066406 C 50.386719 26.601562 50.257812 25.992188 50.257812 25.242188 L 50.257812 16.410156 L 47.785156 16.410156 L 47.785156 13.660156 L 50.257812 13.660156 L 50.257812 9.171875 L 54.347656 9.171875 L 54.347656 13.660156 Z M 63.183594 13.660156 L 63.183594 16.4375 L 63.242188 16.4375 C 63.632812 15.5 64.292969 14.699219 65.140625 14.136719 C 65.5625 13.859375 66.015625 13.640625 66.496094 13.484375 C 66.980469 13.328125 67.484375 13.253906 67.992188 13.253906 C 68.261719 13.253906 68.558594 13.300781 68.882812 13.398438 L 68.882812 17.21875 C 68.65625 17.175781 68.425781 17.140625 68.195312 17.117188 C 67.933594 17.089844 67.675781 17.074219 67.417969 17.074219 C 66.667969 17.074219 66.035156 17.203125 65.515625 17.453125 C 65.019531 17.683594 64.589844 18.039062 64.265625 18.480469 C 63.9375 18.933594 63.707031 19.453125 63.585938 20 C 63.449219 20.617188 63.382812 21.25 63.386719 21.882812 L 63.386719 28.628906 L 59.300781 28.628906 L 59.300781 13.660156 Z M 70.609375 11.34375 L 70.609375 7.953125 L 74.699219 7.953125 L 74.699219 11.34375 Z M 74.699219 13.660156 L 74.699219 28.628906 L 70.613281 28.628906 L 70.613281 13.660156 Z M 76.828125 13.660156 L 81.492188 13.660156 L 84.113281 17.566406 L 86.703125 13.660156 L 91.222656 13.660156 L 86.328125 20.667969 L 91.824219 28.628906 L 87.160156 28.628906 L 84.054688 23.910156 L 80.945312 28.628906 L 76.367188 28.628906 L 81.722656 20.753906 Z M 96.816406 41.015625 L 96.816406 0.960938 L 93.949219 0.960938 L 93.949219 0 L 97.914062 0 L 97.914062 41.976562 L 93.949219 41.976562 L 93.949219 41.015625 Z M 96.816406 41.015625 "/>
</g>
</svg>
